<?xml version="1.0" encoding="utf-8"?>
<svg version="1.1" xmlns="http://www.w3.org/2000/svg" width="1317" height="302">
  <path d="M0 0 C1.26205261 -0.00281982 2.52410522 -0.00563965 3.82440186 -0.00854492 C5.23596206 -0.00660032 6.64752212 -0.00455214 8.05908203 -0.00241089 C9.53542118 -0.00376488 11.01175998 -0.0055448 12.48809814 -0.00772095 C16.50864738 -0.01229555 20.52917106 -0.01050561 24.54972076 -0.00734186 C28.74799165 -0.0048184 32.94626028 -0.00715576 37.14453125 -0.00872803 C44.19613032 -0.01054976 51.24771893 -0.00814331 58.29931641 -0.00338745 C66.46372503 0.00205518 74.62810869 0.00029252 82.79251671 -0.00521386 C89.78952435 -0.00974487 96.78652446 -0.01039559 103.7835331 -0.00777519 C107.96814 -0.00621235 112.15273515 -0.00601883 116.33734131 -0.00931168 C120.27052739 -0.01219023 124.20368114 -0.010215 128.13686371 -0.00441742 C129.58452043 -0.00308973 131.03217985 -0.00348408 132.47983551 -0.00568008 C134.44781907 -0.00839122 136.41580855 -0.00439709 138.38378906 0 C139.48772003 0.00037703 140.591651 0.00075405 141.72903442 0.0011425 C144.19189453 0.12698364 144.19189453 0.12698364 145.19189453 1.12698364 C145.31374596 2.47682112 145.36956284 3.83273066 145.3972168 5.18777466 C145.41716202 6.04859146 145.43710724 6.90940826 145.45765686 7.79631042 C145.4827256 9.19942726 145.4827256 9.19942726 145.50830078 10.63088989 C145.52908188 11.58390488 145.54986298 12.53691986 145.5712738 13.51881409 C145.6368763 16.57562774 145.69570371 19.63253021 145.75439453 22.68948364 C145.79756959 24.75655027 145.84118354 26.82360778 145.88525391 28.89065552 C145.99256854 33.9693396 146.09380544 39.04811334 146.19189453 44.12698364 C146.95388657 44.12476303 147.7158786 44.12254242 148.5009613 44.12025452 C155.66741165 44.10025208 162.83384855 44.08500976 170.00031948 44.07517147 C173.68503951 44.06994356 177.36973656 44.0628476 181.05444336 44.05154419 C184.60760284 44.04071202 188.16074016 44.03470611 191.71391487 44.0321064 C193.07235119 44.03025274 194.43078625 44.02663326 195.78921318 44.02125359 C197.68571677 44.01403889 199.58224246 44.01357555 201.47875977 44.01345825 C202.5601976 44.01123764 203.64163544 44.00901703 204.75584412 44.00672913 C207.19189453 44.12698364 207.19189453 44.12698364 208.19189453 45.12698364 C208.28037196 47.64792441 208.30716755 50.14129257 208.28955078 52.66213989 C208.28742836 53.79201576 208.28742836 53.79201576 208.28526306 54.94471741 C208.27964829 57.35967924 208.26709336 59.77454965 208.25439453 62.18948364 C208.24938143 63.82294585 208.2448182 65.4564095 208.24072266 67.08987427 C208.22967407 71.10227949 208.21239959 75.11461605 208.19189453 79.12698364 C205.71689453 79.62198364 205.71689453 79.62198364 203.19189453 80.12698364 C205.17189453 85.73698364 207.15189453 91.34698364 209.19189453 97.12698364 C211.66689453 89.20698364 211.66689453 89.20698364 214.19189453 81.12698364 C212.54189453 80.46698364 210.89189453 79.80698364 209.19189453 79.12698364 C209.16724263 74.30317562 209.1490576 69.47940398 209.13696289 64.6555481 C209.13192279 63.013289 209.12509075 61.37103441 209.11645508 59.72879028 C209.10437528 57.37322885 209.09866315 55.01772656 209.09423828 52.66213989 C209.089077 51.92359268 209.08391571 51.18504547 209.07859802 50.42411804 C209.07840203 48.65800276 209.12994734 46.89201219 209.19189453 45.12698364 C210.19189453 44.12698364 210.19189453 44.12698364 212.12655735 44.00393581 C212.98105945 44.00485761 213.83556154 44.0057794 214.71595764 44.00672913 C215.69337418 44.00535446 216.67079071 44.0039798 217.67782593 44.00256348 C218.75891632 44.00615875 219.84000671 44.00975403 220.95385742 44.01345825 C222.65119774 44.01323921 222.65119774 44.01323921 224.38282776 44.01301575 C228.14342124 44.01371545 231.9039659 44.02151053 235.66455078 44.02932739 C238.26386996 44.03119137 240.8631895 44.03261537 243.46250916 44.03361511 C249.6177803 44.03705024 255.77303113 44.04494108 261.9282946 44.0549646 C268.93422799 44.0661267 275.9401622 44.07163643 282.94610226 44.07666004 C297.36137586 44.08712372 311.77663457 44.10472257 326.19189453 44.12698364 C326.85189453 46.43698364 327.51189453 48.74698364 328.19189453 51.12698364 C328.84416016 50.71706177 329.49642578 50.30713989 330.16845703 49.88479614 C331.04244141 49.34596802 331.91642578 48.80713989 332.81689453 48.25198364 C333.67541016 47.71831177 334.53392578 47.18463989 335.41845703 46.63479614 C345.25275186 41.28826402 357.82873369 41.89149832 368.66064453 43.70901489 C377.73064659 46.56293795 385.52728112 53.66073477 390.17236328 61.90042114 C393.56976319 69.32003015 395.59676905 77.15135624 397.19189453 85.12698364 C397.41103516 84.30456177 397.63017578 83.48213989 397.85595703 82.63479614 C402.02482652 67.9590198 408.99780161 57.07525849 422.47314453 49.44338989 C434.02636397 43.84937416 445.04121739 42.90732129 457.69189453 42.81448364 C459.62162109 42.77097778 459.62162109 42.77097778 461.59033203 42.72659302 C474.35038053 42.64315206 486.16011439 44.86433507 496.19189453 53.12698364 C497.11035156 53.84434692 497.11035156 53.84434692 498.04736328 54.57620239 C506.64311249 62.10934242 510.86211127 74.25466177 513.19189453 85.12698364 C513.52060547 83.89335083 513.52060547 83.89335083 513.85595703 82.63479614 C518.02482652 67.9590198 524.99780161 57.07525849 538.47314453 49.44338989 C556.829547 40.55530422 581.50373916 40.00083843 600.87158203 45.91995239 C601.96728516 46.31827271 603.06298828 46.71659302 604.19189453 47.12698364 C605.32884766 47.53561646 606.46580078 47.94424927 607.63720703 48.36526489 C617.41228734 52.16930217 617.41228734 52.16930217 621.19189453 56.12698364 C621.90193881 59.16366974 621.79802381 62.1276169 621.71533203 65.23245239 C621.71062897 66.11226273 621.7059259 66.99207306 621.70108032 67.89854431 C621.67974864 70.70465732 621.62311721 73.50887581 621.56689453 76.31448364 C621.55038784 78.21485655 621.53603966 80.11524953 621.52392578 82.01565552 C621.38741214 95.93146603 621.38741214 95.93146603 620.19189453 97.12698364 C617.46465175 97.22797852 614.7632693 97.26668893 612.03564453 97.25979614 C610.80944397 97.26123123 610.80944397 97.26123123 609.55847168 97.26269531 C607.82674076 97.2633771 606.09500729 97.26152293 604.36328125 97.25735474 C601.70322971 97.25200643 599.04334703 97.25729976 596.38330078 97.26370239 C594.70491499 97.26304161 593.0265293 97.26176045 591.34814453 97.25979614 C590.54711304 97.26182037 589.74608154 97.2638446 588.92077637 97.26593018 C583.30684532 97.24193443 583.30684532 97.24193443 582.19189453 96.12698364 C581.90900272 93.87282986 581.74418263 91.61857709 581.57080078 89.35354614 C581.29988628 86.84778287 581.29988628 86.84778287 579.19189453 84.12698364 C574.60748628 83.00250615 571.33524 82.6897216 567.19189453 85.12698364 C565.66524967 89.70691824 566.00746743 94.26769392 566.00439453 99.06448364 C565.99214844 100.06672974 565.97990234 101.06897583 565.96728516 102.10159302 C565.96535156 103.06774536 565.96341797 104.03389771 565.96142578 105.02932739 C565.95526245 106.35178467 565.95526245 106.35178467 565.94897461 107.70095825 C566.21442403 110.35198429 566.71785955 111.91366807 568.19189453 114.12698364 C578.70745817 119.68237576 591.22433812 117.07347955 602.59301758 115.83914185 C608.16242568 115.2469876 613.58902661 114.94840618 619.19189453 115.12698364 C620.19189453 116.12698364 620.19189453 116.12698364 620.30541992 119.26980591 C620.30526086 120.66101062 620.2995696 122.05222125 620.28955078 123.44338989 C620.28813583 124.17444443 620.28672089 124.90549896 620.28526306 125.65870667 C620.27964861 128.00233996 620.26709375 130.34587904 620.25439453 132.68948364 C620.24938139 134.27476872 620.24481816 135.8600553 620.24072266 137.44534302 C620.2296745 141.33925974 620.21240025 145.2331057 620.19189453 149.12698364 C605.56808709 156.1059929 590.80094778 157.50968317 574.75439453 157.56448364 C574.07915741 157.57056641 573.40392029 157.57664917 572.70822144 157.58291626 C554.94366726 157.68763113 539.47421419 154.02774832 526.37939453 141.47854614 C518.05269078 132.52733961 514.22120779 122.49157153 512.58642578 110.49807739 C512.43648538 108.17775597 512.43648538 108.17775597 511.19189453 107.12698364 C509.25882955 107.03302307 507.32230615 107.00954847 505.38696289 107.01345825 C503.52514626 107.01357155 503.52514626 107.01357155 501.62571716 107.01368713 C500.26105713 107.01879454 498.89639751 107.02401054 497.53173828 107.02932739 C496.1431127 107.03119164 494.75448646 107.03261551 493.36585999 107.03361511 C489.70468338 107.03743978 486.04354623 107.04726961 482.38238525 107.05831909 C478.6489719 107.06853432 474.9155522 107.07311297 471.18212891 107.07815552 C463.85203277 107.08889193 456.52196917 107.10596773 449.19189453 107.12698364 C450.82995156 111.86280415 450.82995156 111.86280415 454.03173828 115.46682739 C468.17710455 119.49707141 484.56564123 116.66185825 498.61767578 113.03713989 C501.99621007 112.17681367 504.72681541 111.87344127 508.19189453 112.12698364 C509.19189453 113.12698364 509.19189453 113.12698364 509.30541992 116.36160278 C509.30526084 117.7951249 509.29956861 119.22865277 509.28955078 120.66213989 C509.28813583 121.41539047 509.28672089 122.16864105 509.28526306 122.94471741 C509.27964829 125.35967924 509.26709336 127.77454965 509.25439453 130.18948364 C509.24938143 131.82294585 509.2448182 133.4564095 509.24072266 135.08987427 C509.22967407 139.10227949 509.21239959 143.11461605 509.19189453 147.12698364 C504.34687148 149.69397662 499.68800408 151.78114654 494.37939453 153.25198364 C493.27982422 153.56393677 492.18025391 153.87588989 491.04736328 154.19729614 C481.28552552 156.55121447 471.99785277 157.47334731 461.97705078 157.44265747 C459.82679416 157.43949819 457.67791978 157.46304259 455.52783203 157.48831177 C438.20710188 157.56884036 423.14708667 153.71425111 410.37939453 141.47854614 C403.43505766 134.01338401 398.9910097 125.17352773 397.19189453 115.12698364 C396.96115234 116.16596802 396.73041016 117.20495239 396.49267578 118.27542114 C393.35190085 131.9308217 389.02112743 144.84319252 376.52783203 152.83010864 C366.38412341 158.03661395 353.23821389 159.48523928 342.1015625 156.58206177 C336.86938663 154.59981537 332.63306995 151.45786521 328.19189453 148.12698364 C327.86189453 153.07698364 327.53189453 158.02698364 327.19189453 163.12698364 C329.15126953 163.10635864 331.11064453 163.08573364 333.12939453 163.06448364 C335.1502233 163.04321176 337.17225254 163.05454311 339.19189453 163.12698364 C340.92482433 164.85991344 340.32009499 167.089127 340.33084106 169.39846802 C340.32780472 170.50158325 340.32780472 170.50158325 340.32470703 171.62698364 C340.32614212 172.753302 340.32614212 172.753302 340.3276062 173.90237427 C340.32828791 175.49286991 340.32643425 177.08336832 340.32226562 178.67385864 C340.3169172 181.11663019 340.32221087 183.55921786 340.32861328 186.00198364 C340.3279525 187.54365072 340.32667133 189.08531768 340.32470703 190.62698364 C340.32673126 191.3623938 340.32875549 192.09780396 340.33084106 192.85549927 C340.30684614 198.01203204 340.30684614 198.01203204 339.19189453 199.12698364 C337.01926773 199.22654642 334.84336347 199.25498083 332.66845703 199.25637817 C331.98716736 199.25813049 331.30587769 199.25988281 330.60394287 199.26168823 C328.34156786 199.26610606 326.0792704 199.26316902 323.81689453 199.25979614 C322.25130193 199.2604692 320.68570943 199.26143924 319.12011719 199.26269531 C315.83478808 199.26417219 312.54948611 199.26201805 309.26416016 199.25735474 C305.04368937 199.25165745 300.82328217 199.25493651 296.60281372 199.2609272 C293.36872881 199.26453309 290.13465909 199.2633941 286.90057373 199.26079941 C285.34397372 199.26013021 283.78737235 199.2609583 282.23077393 199.26327896 C280.05892257 199.26580594 277.88717557 199.26196429 275.71533203 199.25637817 C274.47702637 199.25558258 273.2387207 199.25478699 271.96289062 199.25396729 C269.19189453 199.12698364 269.19189453 199.12698364 268.19189453 198.12698364 C268.09102241 195.61774211 268.05217421 193.1366198 268.05908203 190.62698364 C268.05764694 189.50066528 268.05764694 189.50066528 268.05618286 188.35159302 C268.05550115 186.76109738 268.05735481 185.17059897 268.06152344 183.58010864 C268.06687186 181.1373371 268.06157819 178.69474943 268.05517578 176.25198364 C268.05583656 174.71031657 268.05711773 173.16864961 268.05908203 171.62698364 C268.0570578 170.89157349 268.05503357 170.15616333 268.052948 169.39846802 C268.07694292 164.24193525 268.07694292 164.24193525 269.19189453 163.12698364 C271.83189453 163.12698364 274.47189453 163.12698364 277.19189453 163.12698364 C277.19189453 135.73698364 277.19189453 108.34698364 277.19189453 80.12698364 C273.89189453 80.12698364 270.59189453 80.12698364 267.19189453 80.12698364 C265.53335449 80.0613623 265.53335449 80.0613623 263.84130859 79.99441528 C260.58085001 81.38819222 260.35384952 82.25159684 258.92529297 85.41775513 C258.19202428 87.35180633 257.48591178 89.29628283 256.80126953 91.24807739 C256.41496872 92.28677979 256.02866791 93.32548218 255.63066101 94.3956604 C254.37853844 97.77744702 253.16070838 101.17056776 251.94189453 104.56448364 C251.08913334 106.87933625 250.23374438 109.19322251 249.37573242 111.50613403 C247.31338777 117.07710361 245.27406957 122.65610456 243.24371338 128.23880005 C222.65570221 184.77130677 222.65570221 184.77130677 200.25439453 196.10745239 C186.22750336 202.54652097 166.75608169 200.34292018 152.30126953 196.29495239 C146.61130525 194.15764169 146.61130525 194.15764169 144.19189453 192.12698364 C143.72568972 189.08046197 143.58361711 186.59775439 143.66845703 183.55667114 C143.6731601 182.71983795 143.67786316 181.88300476 143.68270874 181.02081299 C143.70407102 178.34703483 143.76071164 175.67523303 143.81689453 173.00198364 C143.8333979 171.19340847 143.84774694 169.38481227 143.85986328 167.57620239 C143.99646842 154.32240975 143.99646842 154.32240975 145.19189453 153.12698364 C147.41044717 153.03914823 149.63177949 153.02003755 151.85205078 153.02932739 C152.84875038 153.03144981 152.84875038 153.03144981 153.86558533 153.03361511 C155.99523352 153.03922846 158.12477793 153.0517831 160.25439453 153.06448364 C161.69514823 153.06949693 163.13590356 153.07406013 164.57666016 153.07815552 C168.11510555 153.08920219 171.65348992 153.10647572 175.19189453 153.12698364 C176.18189453 155.10698364 177.17189453 157.08698364 178.19189453 159.12698364 C179.51189453 158.46698364 180.83189453 157.80698364 182.19189453 157.12698364 C181.9760672 156.57084381 181.76023987 156.01470398 181.53787231 155.44171143 C176.61929915 142.76713128 171.70344878 130.09150005 166.79173279 117.41426086 C164.69028075 111.99089235 162.58700494 106.56825 160.47851562 101.14761353 C159.31803972 98.16251413 158.16147101 95.17590203 157.00439453 92.18948364 C156.60172363 91.15775024 156.19905273 90.12601685 155.78417969 89.0630188 C155.4301709 88.14697876 155.07616211 87.23093872 154.71142578 86.28713989 C154.41341064 85.52022827 154.11539551 84.75331665 153.80834961 83.96316528 C153.19189453 82.12698364 153.19189453 82.12698364 153.19189453 80.12698364 C152.05751953 80.14760864 150.92314453 80.16823364 149.75439453 80.18948364 C146.19189453 80.12698364 146.19189453 80.12698364 145.19189453 79.12698364 C145.03364195 77.12916238 144.94070282 75.1260953 144.87548828 73.12307739 C144.81264648 71.30066528 144.81264648 71.30066528 144.74853516 69.44143677 C144.70921875 68.16204224 144.66990234 66.88264771 144.62939453 65.56448364 C144.58621094 64.28122192 144.54302734 62.99796021 144.49853516 61.67581177 C144.39204653 58.49298511 144.29003491 55.31007691 144.19189453 52.12698364 C143.0762915 52.13222046 141.96068848 52.13745728 140.8112793 52.14285278 C136.6871012 52.16090139 132.56292663 52.17241513 128.4387207 52.18191528 C126.65095432 52.18695583 124.86319209 52.19378818 123.07543945 52.2024231 C120.51138285 52.21450095 117.94738056 52.22021459 115.38330078 52.22463989 C114.17704796 52.23238182 114.17704796 52.23238182 112.94642639 52.24028015 C111.02787738 52.24047579 109.10944085 52.18900347 107.19189453 52.12698364 C106.19189453 51.12698364 106.19189453 51.12698364 106.09423828 47.74807739 C106.10091084 46.35351287 106.11286921 44.95896622 106.12939453 43.56448364 C106.13390625 42.85356567 106.13841797 42.14264771 106.14306641 41.41018677 C106.15488589 39.64908351 106.1728219 37.88802328 106.19189453 36.12698364 C103.88189453 36.12698364 101.57189453 36.12698364 99.19189453 36.12698364 C99.19189453 63.84698364 99.19189453 91.56698364 99.19189453 120.12698364 C103.15189453 120.12698364 107.11189453 120.12698364 111.19189453 120.12698364 C112.92482433 121.85991344 112.32009499 124.089127 112.33084106 126.39846802 C112.32780472 127.50158325 112.32780472 127.50158325 112.32470703 128.62698364 C112.32566376 129.37786255 112.32662048 130.12874146 112.3276062 130.90237427 C112.32828791 132.49286991 112.32643425 134.08336832 112.32226562 135.67385864 C112.3169172 138.11663019 112.32221087 140.55921786 112.32861328 143.00198364 C112.3279525 144.54365072 112.32667133 146.08531768 112.32470703 147.62698364 C112.32673126 148.3623938 112.32875549 149.09780396 112.33084106 149.85549927 C112.30684614 155.01203204 112.30684614 155.01203204 111.19189453 156.12698364 C108.58039165 156.22739822 105.99531088 156.26315421 103.38330078 156.25637817 C102.15654129 156.25900665 102.15654129 156.25900665 100.90499878 156.26168823 C98.18810943 156.26610749 95.4712846 156.2631685 92.75439453 156.25979614 C90.87491849 156.26046916 88.99544254 156.26143917 87.1159668 156.26269531 C83.17154107 156.26417239 79.22713795 156.26201743 75.28271484 156.25735474 C70.2147695 156.25165744 65.14687711 156.2549364 60.07893372 156.2609272 C56.19632566 156.26453256 52.31373025 156.26339434 48.43112183 156.26079941 C46.5619201 156.26013007 44.69271725 156.2609588 42.82351685 156.26327896 C40.21580949 156.26580508 37.60818912 156.26196548 35.00048828 156.25637817 C34.22019257 156.2584024 33.43989685 156.26042664 32.63595581 156.26251221 C27.30615707 156.24124618 27.30615707 156.24124618 26.19189453 155.12698364 C26.09102241 152.61774211 26.05217421 150.1366198 26.05908203 147.62698364 C26.05812531 146.87610474 26.05716858 146.12522583 26.05618286 145.35159302 C26.05550115 143.76109738 26.05735481 142.17059897 26.06152344 140.58010864 C26.06687186 138.1373371 26.06157819 135.69474943 26.05517578 133.25198364 C26.05583656 131.71031657 26.05711773 130.16864961 26.05908203 128.62698364 C26.0570578 127.89157349 26.05503357 127.15616333 26.052948 126.39846802 C26.07694292 121.24193525 26.07694292 121.24193525 27.19189453 120.12698364 C31.15189453 120.12698364 35.11189453 120.12698364 39.19189453 120.12698364 C39.19189453 92.40698364 39.19189453 64.68698364 39.19189453 36.12698364 C36.88189453 36.12698364 34.57189453 36.12698364 32.19189453 36.12698364 C32.20349609 37.19819458 32.21509766 38.26940552 32.22705078 39.37307739 C32.23642752 40.77021107 32.24552784 42.16734663 32.25439453 43.56448364 C32.26277344 44.27153442 32.27115234 44.97858521 32.27978516 45.70706177 C32.28843041 47.51391924 32.24409465 49.32085967 32.19189453 51.12698364 C30.37624017 52.94263801 27.87919491 52.25560264 25.4630127 52.26593018 C24.6619812 52.26390594 23.86094971 52.26188171 23.03564453 52.25979614 C21.80944397 52.26123123 21.80944397 52.26123123 20.55847168 52.26269531 C18.82674076 52.2633771 17.09500729 52.26152293 15.36328125 52.25735474 C12.70322971 52.25200643 10.04334703 52.25729976 7.38330078 52.26370239 C5.70491499 52.26304161 4.0265293 52.26176045 2.34814453 52.25979614 C1.54711304 52.26182037 0.74608154 52.2638446 -0.07922363 52.26593018 C-5.69315468 52.24193443 -5.69315468 52.24193443 -6.80810547 51.12698364 C-6.90657513 49.56699316 -6.93609165 48.0025782 -6.9375 46.43948364 C-6.94065216 45.44174927 -6.94380432 44.44401489 -6.947052 43.41604614 C-6.94502777 42.33065552 -6.94300354 41.24526489 -6.94091797 40.12698364 C-6.94187469 39.02096802 -6.94283142 37.91495239 -6.94381714 36.77542114 C-6.94449913 34.43167057 -6.94264351 32.08791811 -6.93847656 29.74417114 C-6.93312861 26.14256577 -6.93842093 22.54108511 -6.94482422 18.93948364 C-6.94416344 16.66865003 -6.94288229 14.3978165 -6.94091797 12.12698364 C-6.9429422 11.04159302 -6.94496643 9.95620239 -6.947052 8.83792114 C-6.94389984 7.84018677 -6.94074768 6.84245239 -6.9375 5.81448364 C-6.93670441 4.93147583 -6.93590881 4.04846802 -6.93508911 3.13870239 C-6.66710152 -1.1068496 -3.57546469 0.00122113 0 0 Z M450.56689453 78.00198364 C449.01081077 79.98499751 449.01081077 79.98499751 449.19189453 82.12698364 C454.80189453 82.12698364 460.41189453 82.12698364 466.19189453 82.12698364 C465.5634748 78.15556674 465.5634748 78.15556674 463.19189453 76.12698364 C458.52419362 75.42764169 454.46919291 75.21462766 450.56689453 78.00198364 Z M327.19189453 86.12698364 C326.61456582 89.14413193 326.61456582 89.14413193 326.73095703 92.38088989 C326.73482422 93.5648938 326.73869141 94.74889771 326.74267578 95.96878052 C326.76716797 97.19661255 326.79166016 98.42444458 326.81689453 99.68948364 C326.81818359 100.92118286 326.81947266 102.15288208 326.82080078 103.42190552 C326.62674441 110.61253808 326.62674441 110.61253808 329.19189453 117.12698364 C332.14947045 118.85223626 333.88645513 119.14531001 337.31689453 118.93948364 C340.26529291 118.10624062 341.36940838 117.52499173 343.19189453 115.12698364 C345.41114438 110.68848395 344.46665177 104.68833161 344.50439453 99.81448364 C344.54790039 97.95920044 344.54790039 97.95920044 344.59228516 96.06643677 C344.60066406 94.87340942 344.60904297 93.68038208 344.61767578 92.45120239 C344.6322583 91.35896362 344.64684082 90.26672485 344.66186523 89.14138794 C344.08322697 85.42998711 342.80133432 83.77865226 340.19189453 81.12698364 C337.99478959 80.34727985 337.99478959 80.34727985 335.69189453 80.50198364 C334.93908203 80.48909302 334.18626953 80.47620239 333.41064453 80.46292114 C330.09861264 81.45419829 329.07726641 83.28480137 327.19189453 86.12698364 Z " fill="#000000" transform="translate(23.80810546875,65.87301635742188)"/>
  <path d="M 1080.8 65.744 C 1081.51 65.729 1082.22 65.714 1082.95 65.699 C 1089.52 65.573 1096.09 65.505 1102.66 65.452 C 1107.08 65.416 1111.49 65.363 1115.91 65.266 C 1120.18 65.173 1124.44 65.125 1128.71 65.107 C 1130.34 65.093 1131.96 65.064 1133.59 65.018 C 1146.27 64.679 1146.27 64.679 1150.49 67.907 C 1152.31 70.198 1153.66 72.409 1155 75 C 1155.97 76.51 1156.96 78.013 1157.96 79.508 C 1158.91 81.044 1159.87 82.583 1160.81 84.125 C 1164.4 89.887 1168.02 95.618 1171.81 101.25 C 1178.17 110.693 1184.35 120.245 1190.56 129.786 C 1191.69 131.53 1192.84 133.267 1194 135 C 1194.33 124.11 1194.66 113.22 1195 102 C 1192.36 102 1189.72 102 1187 102 C 1185.27 100.267 1185.87 98.038 1185.86 95.729 C 1185.86 94.625 1185.86 94.625 1185.87 93.5 C 1185.87 92.749 1185.87 91.998 1185.86 91.225 C 1185.86 89.634 1185.87 88.044 1185.87 86.453 C 1185.88 84.01 1185.87 81.568 1185.86 79.125 C 1185.86 77.583 1185.87 76.042 1185.87 74.5 C 1185.87 73.765 1185.86 73.029 1185.86 72.271 C 1185.88 67.115 1185.88 67.115 1187 66 C 1189.08 65.901 1191.16 65.872 1193.25 65.871 C 1193.9 65.869 1194.55 65.867 1195.22 65.865 C 1197.39 65.861 1199.55 65.864 1201.72 65.867 C 1203.22 65.867 1204.71 65.866 1206.21 65.864 C 1209.36 65.863 1212.5 65.865 1215.65 65.87 C 1219.68 65.875 1223.72 65.872 1227.76 65.866 C 1230.86 65.862 1233.95 65.864 1237.05 65.866 C 1238.54 65.867 1240.03 65.866 1241.52 65.864 C 1243.6 65.861 1245.67 65.865 1247.75 65.871 C 1248.94 65.871 1250.12 65.872 1251.34 65.873 C 1254 66 1254 66 1255 67 C 1255.1 69.509 1255.14 71.99 1255.13 74.5 C 1255.13 75.251 1255.13 76.002 1255.14 76.775 C 1255.14 78.366 1255.13 79.956 1255.13 81.547 C 1255.13 83.99 1255.13 86.432 1255.14 88.875 C 1255.14 90.417 1255.13 91.958 1255.13 93.5 C 1255.13 94.235 1255.14 94.971 1255.14 95.729 C 1255.12 100.885 1255.12 100.885 1254 102 C 1252.48 102.072 1250.96 102.084 1249.44 102.063 C 1248.61 102.053 1247.79 102.044 1246.93 102.035 C 1246.3 102.024 1245.66 102.012 1245 102 C 1245 102.919 1245 102.919 1245 103.856 C 1245.03 118.736 1245.04 133.615 1245.05 148.495 C 1245.06 155.691 1245.06 162.887 1245.08 170.082 C 1245.09 176.352 1245.09 182.621 1245.09 188.891 C 1245.1 192.213 1245.1 195.534 1245.11 198.856 C 1245.11 202.558 1245.11 206.26 1245.11 209.963 C 1245.12 211.072 1245.12 212.181 1245.12 213.324 C 1245.12 214.326 1245.12 215.329 1245.12 216.362 C 1245.12 217.677 1245.12 217.677 1245.12 219.018 C 1245 221 1245 221 1244 222 C 1242.23 222.141 1240.45 222.212 1238.67 222.256 C 1237.54 222.285 1236.4 222.314 1235.22 222.344 C 1230.68 222.429 1226.14 222.502 1221.59 222.548 C 1218.15 222.584 1214.7 222.637 1211.25 222.734 C 1207.28 222.845 1203.31 222.882 1199.34 222.914 C 1198.11 222.957 1196.88 223.001 1195.61 223.045 C 1187.22 223.027 1187.22 223.027 1183.71 220.078 C 1181.91 217.795 1180.43 215.528 1179 213 C 1178.11 211.635 1177.22 210.273 1176.32 208.914 C 1175.44 207.487 1174.56 206.057 1173.69 204.625 C 1168.58 196.406 1163.27 188.344 1157.88 180.313 C 1152.48 172.267 1147.12 164.207 1142.08 155.931 C 1139.55 151.786 1136.85 147.985 1134 144 C 1133.67 157.86 1133.34 171.72 1133 186 C 1135.64 186 1138.28 186 1141 186 C 1142.73 187.733 1142.13 189.962 1142.14 192.271 C 1142.14 193.375 1142.14 193.375 1142.13 194.5 C 1142.13 195.251 1142.13 196.002 1142.14 196.775 C 1142.14 198.366 1142.13 199.956 1142.13 201.547 C 1142.13 203.99 1142.13 206.432 1142.14 208.875 C 1142.14 210.417 1142.13 211.958 1142.13 213.5 C 1142.13 214.235 1142.14 214.971 1142.14 215.729 C 1142.12 220.885 1142.12 220.885 1141 222 C 1138.92 222.099 1136.84 222.128 1134.75 222.129 C 1134.1 222.131 1133.45 222.133 1132.78 222.135 C 1130.61 222.139 1128.45 222.136 1126.28 222.133 C 1124.78 222.133 1123.29 222.134 1121.79 222.136 C 1118.64 222.137 1115.5 222.135 1112.35 222.13 C 1108.32 222.125 1104.28 222.128 1100.24 222.134 C 1097.14 222.138 1094.05 222.136 1090.95 222.134 C 1089.46 222.133 1087.97 222.134 1086.48 222.136 C 1084.4 222.139 1082.33 222.135 1080.25 222.129 C 1078.47 222.128 1078.47 222.128 1076.66 222.127 C 1074 222 1074 222 1073 221 C 1072.9 218.491 1072.86 216.01 1072.87 213.5 C 1072.87 212.749 1072.87 211.998 1072.86 211.225 C 1072.86 209.634 1072.87 208.044 1072.87 206.453 C 1072.88 204.01 1072.87 201.568 1072.86 199.125 C 1072.86 197.583 1072.87 196.042 1072.87 194.5 C 1072.87 193.765 1072.86 193.029 1072.86 192.271 C 1072.88 187.115 1072.88 187.115 1074 186 C 1076.97 186 1079.94 186 1083 186 C 1083 158.28 1083 130.56 1083 102 C 1080.03 102 1077.06 102 1074 102 C 1072.27 100.267 1072.87 98.038 1072.86 95.729 C 1072.86 94.993 1072.87 94.258 1072.87 93.5 C 1072.87 92.749 1072.87 91.998 1072.86 91.225 C 1072.86 89.634 1072.87 88.044 1072.87 86.453 C 1072.88 84.01 1072.87 81.568 1072.86 79.125 C 1072.86 77.583 1072.87 76.042 1072.87 74.5 C 1072.87 73.765 1072.86 73.029 1072.86 72.271 C 1072.89 65.294 1074.03 65.874 1080.8 65.744 Z" fill="#000000"/>
  <path d="M 926.063 65.864 C 927.15 65.868 927.15 65.868 928.258 65.871 C 929.397 65.868 929.397 65.868 930.559 65.865 C 933.081 65.861 935.603 65.864 938.125 65.867 C 939.87 65.867 941.615 65.866 943.36 65.864 C 947.022 65.863 950.684 65.865 954.346 65.87 C 959.05 65.875 963.75 65.872 968.46 65.866 C 972.07 65.862 975.67 65.864 979.27 65.866 C 981.01 65.867 982.74 65.866 984.48 65.864 C 986.9 65.861 989.32 65.865 991.74 65.871 C 992.47 65.869 993.19 65.867 993.94 65.864 C 998.89 65.886 998.89 65.886 1000 67 C 1000.1 69.509 1000.14 71.99 1000.13 74.5 C 1000.13 75.251 1000.13 76.002 1000.14 76.775 C 1000.14 78.366 1000.13 79.956 1000.13 81.547 C 1000.13 83.99 1000.13 86.432 1000.14 88.875 C 1000.14 90.417 1000.13 91.958 1000.13 93.5 C 1000.13 94.235 1000.14 94.971 1000.14 95.729 C 1000.12 100.885 1000.12 100.885 999 102 C 996.36 102.33 993.72 102.66 991 103 C 994.3 119.17 997.6 135.34 1001 152 C 1001.33 152 1001.66 152 1002 152 C 1005.3 135.83 1008.6 119.66 1012 103 C 1009.36 102.67 1006.72 102.34 1004 102 C 1002.27 100.267 1002.87 98.038 1002.86 95.729 C 1002.86 94.625 1002.86 94.625 1002.87 93.5 C 1002.87 92.749 1002.87 91.998 1002.86 91.225 C 1002.86 89.634 1002.87 88.044 1002.87 86.453 C 1002.88 84.01 1002.87 81.568 1002.86 79.125 C 1002.86 77.583 1002.87 76.042 1002.87 74.5 C 1002.87 73.765 1002.86 73.029 1002.86 72.271 C 1002.88 67.115 1002.88 67.115 1004 66 C 1006.11 65.901 1008.23 65.872 1010.34 65.871 C 1011 65.869 1011.66 65.867 1012.35 65.865 C 1014.54 65.861 1016.74 65.864 1018.94 65.867 C 1020.46 65.867 1021.98 65.866 1023.5 65.864 C 1026.69 65.863 1029.88 65.865 1033.07 65.87 C 1037.17 65.875 1041.27 65.872 1045.37 65.866 C 1048.51 65.862 1051.65 65.864 1054.8 65.866 C 1056.31 65.867 1057.82 65.866 1059.33 65.864 C 1061.44 65.861 1063.55 65.865 1065.66 65.871 C 1066.86 65.871 1068.07 65.872 1069.31 65.873 C 1072 66 1072 66 1073 67 C 1073.1 69.509 1073.14 71.99 1073.13 74.5 C 1073.13 75.251 1073.13 76.002 1073.14 76.775 C 1073.14 78.366 1073.13 79.956 1073.13 81.547 C 1073.13 83.99 1073.13 86.432 1073.14 88.875 C 1073.14 90.417 1073.13 91.958 1073.13 93.5 C 1073.13 94.235 1073.14 94.971 1073.14 95.729 C 1073.12 100.885 1073.12 100.885 1072 102 C 1069.67 102.041 1067.33 102.042 1065 102 C 1064.78 103.259 1064.56 104.517 1064.34 105.814 C 1062.63 114.34 1060.02 122.642 1057.58 130.98 C 1057.04 132.839 1056.5 134.698 1055.96 136.557 C 1054.83 140.45 1053.69 144.342 1052.55 148.234 C 1051.11 153.152 1049.68 158.072 1048.25 162.992 C 1038.56 196.309 1038.56 196.309 1033.76 212.176 C 1033.48 213.097 1033.21 214.017 1032.92 214.966 C 1031.12 220.879 1031.12 220.879 1030 222 C 1027.91 222.094 1025.82 222.117 1023.74 222.114 C 1022.76 222.114 1022.76 222.114 1021.76 222.114 C 1019.59 222.113 1017.42 222.105 1015.25 222.098 C 1013.74 222.096 1012.24 222.094 1010.74 222.093 C 1006.79 222.09 1002.83 222.08 998.87 222.069 C 994.84 222.058 990.8 222.054 986.77 222.049 C 978.85 222.038 970.92 222.021 963 222 C 960.96 216.718 959.16 211.444 957.583 206.009 C 957.362 205.253 957.14 204.497 956.912 203.718 C 956.184 201.235 955.461 198.75 954.738 196.266 C 954.224 194.506 953.709 192.746 953.194 190.986 C 952.114 187.291 951.036 183.596 949.959 179.9 C 948.605 175.252 947.247 170.604 945.888 165.957 C 942.58 154.641 939.283 143.323 936 132 C 935.779 131.239 935.559 130.478 935.331 129.694 C 933.959 124.959 932.593 120.222 931.23 115.484 C 930.896 114.328 930.562 113.172 930.218 111.981 C 929.92 110.942 929.623 109.904 929.317 108.835 C 929.06 107.941 928.804 107.048 928.539 106.127 C 928 104 928 104 928 102 C 926.298 102.031 926.298 102.031 924.562 102.062 C 921 102 921 102 920 101 C 919.899 98.491 919.86 96.01 919.867 93.5 C 919.866 92.749 919.865 91.998 919.864 91.225 C 919.864 89.634 919.865 88.044 919.87 86.453 C 919.875 84.01 919.87 81.568 919.863 79.125 C 919.864 77.583 919.865 76.042 919.867 74.5 C 919.865 73.765 919.863 73.029 919.861 72.271 C 919.889 66.277 920.05 65.89 926.063 65.864 Z" fill="#000000"/>
  <path d="M 649.238 65.871 C 650.356 65.867 651.474 65.864 652.626 65.861 C 654.451 65.864 654.451 65.864 656.313 65.867 C 657.552 65.866 658.791 65.865 660.068 65.864 C 662.694 65.864 665.32 65.865 667.946 65.87 C 671.319 65.875 674.692 65.872 678.065 65.866 C 681.273 65.862 684.48 65.865 687.688 65.867 C 688.904 65.865 690.121 65.863 691.374 65.861 C 693.051 65.866 693.051 65.866 694.762 65.871 C 695.751 65.871 696.741 65.872 697.76 65.873 C 700 66 700 66 701 67 C 701.123 68.687 701.178 70.379 701.205 72.071 C 701.235 73.692 701.235 73.692 701.266 75.346 C 701.282 76.522 701.299 77.698 701.316 78.91 C 701.337 80.107 701.358 81.304 701.379 82.538 C 701.445 86.379 701.504 90.221 701.563 94.062 C 701.606 96.66 701.649 99.257 701.693 101.854 C 701.801 108.236 701.902 114.618 702 121 C 702.784 120.283 702.784 120.283 703.583 119.552 C 704.632 118.61 704.632 118.61 705.703 117.648 C 706.391 117.026 707.078 116.404 707.786 115.763 C 715.571 109.563 724.117 108.782 733.688 108.687 C 735.121 108.644 735.121 108.644 736.584 108.6 C 746.117 108.515 753.244 111.448 760.211 117.957 C 768.352 127.254 769.323 139.2 769.195 151.039 C 769.192 152.046 769.19 153.053 769.187 154.09 C 769.176 157.269 769.151 160.447 769.125 163.625 C 769.115 165.796 769.106 167.966 769.098 170.137 C 769.076 175.425 769.042 180.712 769 186 C 770.134 185.979 771.269 185.959 772.438 185.937 C 776 186 776 186 777 187 C 777.101 189.509 777.14 191.99 777.133 194.5 C 777.134 195.251 777.135 196.002 777.136 196.775 C 777.136 198.366 777.135 199.956 777.13 201.547 C 777.125 203.99 777.13 206.432 777.137 208.875 C 777.136 210.417 777.135 211.958 777.133 213.5 C 777.135 214.235 777.137 214.971 777.139 215.729 C 777.115 220.885 777.115 220.885 776 222 C 774.011 222.099 772.019 222.128 770.027 222.129 C 768.749 222.133 767.471 222.136 766.155 222.139 C 764.749 222.137 763.343 222.135 761.938 222.133 C 760.506 222.133 759.075 222.134 757.644 222.136 C 754.641 222.137 751.639 222.135 748.636 222.13 C 744.778 222.125 740.921 222.128 737.064 222.134 C 734.108 222.138 731.152 222.136 728.196 222.134 C 726.773 222.133 725.35 222.134 723.928 222.136 C 721.943 222.139 719.958 222.134 717.973 222.129 C 716.275 222.128 716.275 222.128 714.543 222.127 C 712 222 712 222 711 221 C 710.899 218.491 710.86 216.01 710.867 213.5 C 710.866 212.749 710.865 211.998 710.864 211.225 C 710.864 209.634 710.865 208.044 710.87 206.453 C 710.875 204.01 710.87 201.568 710.863 199.125 C 710.864 197.583 710.865 196.042 710.867 194.5 C 710.865 193.765 710.863 193.029 710.861 192.271 C 710.885 187.115 710.885 187.115 712 186 C 714.333 185.959 716.667 185.958 719 186 C 718.882 181.373 718.757 176.747 718.628 172.121 C 718.584 170.547 718.543 168.974 718.503 167.401 C 718.445 165.137 718.381 162.873 718.316 160.609 C 718.3 159.908 718.283 159.207 718.266 158.485 C 718.166 155.198 717.992 152.149 717 149 C 710.206 147.633 710.206 147.633 704 150 C 702.339 154.734 701.719 159.031 701.586 164.027 C 701.547 165.313 701.509 166.599 701.469 167.924 C 701.437 169.262 701.406 170.6 701.375 171.937 C 701.337 173.303 701.298 174.668 701.258 176.033 C 701.164 179.355 701.078 182.677 701 186 C 702.299 185.979 703.599 185.959 704.938 185.937 C 706.292 185.916 707.648 185.929 709 186 C 710.733 187.733 710.128 189.962 710.139 192.271 C 710.136 193.375 710.136 193.375 710.133 194.5 C 710.134 195.251 710.135 196.002 710.136 196.775 C 710.136 198.366 710.135 199.956 710.13 201.547 C 710.125 203.99 710.13 206.432 710.137 208.875 C 710.136 210.417 710.135 211.958 710.133 213.5 C 710.135 214.235 710.137 214.971 710.139 215.729 C 710.115 220.885 710.115 220.885 709 222 C 706.98 222.099 704.957 222.128 702.936 222.129 C 700.988 222.134 700.988 222.134 699.002 222.139 C 697.574 222.137 696.147 222.135 694.719 222.133 C 693.265 222.133 691.812 222.134 690.358 222.136 C 687.308 222.137 684.258 222.135 681.208 222.13 C 677.291 222.125 673.373 222.128 669.455 222.134 C 666.453 222.138 663.45 222.136 660.448 222.134 C 659.003 222.133 657.558 222.134 656.113 222.136 C 654.097 222.139 652.081 222.134 650.064 222.129 C 648.34 222.128 648.34 222.128 646.581 222.127 C 644 222 644 222 643 221 C 642.899 218.491 642.86 216.01 642.867 213.5 C 642.866 212.749 642.865 211.998 642.864 211.225 C 642.864 209.634 642.865 208.044 642.87 206.453 C 642.875 204.01 642.87 201.568 642.863 199.125 C 642.864 197.583 642.865 196.042 642.867 194.5 C 642.865 193.765 642.863 193.029 642.861 192.271 C 642.885 187.115 642.885 187.115 644 186 C 646.64 186 649.28 186 652 186 C 652 158.28 652 130.56 652 102 C 649.36 102 646.72 102 644 102 C 642.267 100.267 642.872 98.038 642.861 95.729 C 642.863 94.993 642.865 94.258 642.867 93.5 C 642.866 92.749 642.865 91.998 642.864 91.225 C 642.864 89.634 642.865 88.044 642.87 86.453 C 642.875 84.01 642.87 81.568 642.863 79.125 C 642.864 77.583 642.865 76.042 642.867 74.5 C 642.865 73.765 642.863 73.029 642.861 72.271 C 642.89 66.135 643.2 65.875 649.238 65.871 Z" fill="#000000"/>
  <path d="M 879 119 C 890.881 129.16 897.016 140.391 899 156 C 900.056 174.054 898.912 191.232 886.5 205.375 C 881.981 210.26 877.377 214.032 871.438 217.063 C 870.043 217.791 870.043 217.791 868.621 218.535 C 858.495 222.631 848.916 223.474 838.063 223.375 C 836.161 223.392 836.161 223.392 834.221 223.41 C 817.277 223.358 802.613 219.26 790.188 207.352 C 778.419 194.701 775.309 178.939 775.754 162.09 C 776.528 145.883 781.899 132.013 794 121 C 815.661 104.055 856.469 102.95 879 119 Z M 830 151 C 827.831 155.337 828.726 161.111 828.688 165.875 C 828.658 167.073 828.629 168.27 828.6 169.504 C 828.591 170.655 828.583 171.806 828.574 172.992 C 828.56 174.048 828.545 175.103 828.53 176.191 C 829.119 179.714 830.2 180.847 833 183 C 836.995 184.089 839.077 184.421 842.875 182.688 C 845.09 181.173 845.09 181.173 846 179 C 846.271 174.714 846.232 170.419 846.25 166.125 C 846.271 164.927 846.291 163.73 846.313 162.496 C 846.318 161.345 846.323 160.194 846.328 159.008 C 846.337 157.952 846.347 156.897 846.356 155.809 C 845.95 152.608 845.27 151.265 843 149 C 837.664 147.49 834.646 148.013 830 151 Z" fill="#000000"/>
</svg>
