<?xml version="1.0" encoding="UTF-8"?>
<svg version="1.1" xmlns="http://www.w3.org/2000/svg" width="1317" height="302">
<path d="M0 0 C1.26205261 -0.00281982 2.52410522 -0.00563965 3.82440186 -0.00854492 C5.23596206 -0.00660032 6.64752212 -0.00455214 8.05908203 -0.00241089 C9.53542118 -0.00376488 11.01175998 -0.0055448 12.48809814 -0.00772095 C16.50864738 -0.01229555 20.52917106 -0.01050561 24.54972076 -0.00734186 C28.74799165 -0.0048184 32.94626028 -0.00715576 37.14453125 -0.00872803 C44.19613032 -0.01054976 51.24771893 -0.00814331 58.29931641 -0.00338745 C66.46372503 0.00205518 74.62810869 0.00029252 82.79251671 -0.00521386 C89.78952435 -0.00974487 96.78652446 -0.01039559 103.7835331 -0.00777519 C107.96814 -0.00621235 112.15273515 -0.00601883 116.33734131 -0.00931168 C120.27052739 -0.01219023 124.20368114 -0.010215 128.13686371 -0.00441742 C129.58452043 -0.00308973 131.03217985 -0.00348408 132.47983551 -0.00568008 C134.44781907 -0.00839122 136.41580855 -0.00439709 138.38378906 0 C139.48772003 0.00037703 140.591651 0.00075405 141.72903442 0.0011425 C144.19189453 0.12698364 144.19189453 0.12698364 145.19189453 1.12698364 C145.31374596 2.47682112 145.36956284 3.83273066 145.3972168 5.18777466 C145.41716202 6.04859146 145.43710724 6.90940826 145.45765686 7.79631042 C145.4827256 9.19942726 145.4827256 9.19942726 145.50830078 10.63088989 C145.52908188 11.58390488 145.54986298 12.53691986 145.5712738 13.51881409 C145.6368763 16.57562774 145.69570371 19.63253021 145.75439453 22.68948364 C145.79756959 24.75655027 145.84118354 26.82360778 145.88525391 28.89065552 C145.99256854 33.9693396 146.09380544 39.04811334 146.19189453 44.12698364 C146.95388657 44.12476303 147.7158786 44.12254242 148.5009613 44.12025452 C155.66741165 44.10025208 162.83384855 44.08500976 170.00031948 44.07517147 C173.68503951 44.06994356 177.36973656 44.0628476 181.05444336 44.05154419 C184.60760284 44.04071202 188.16074016 44.03470611 191.71391487 44.0321064 C193.07235119 44.03025274 194.43078625 44.02663326 195.78921318 44.02125359 C197.68571677 44.01403889 199.58224246 44.01357555 201.47875977 44.01345825 C202.5601976 44.01123764 203.64163544 44.00901703 204.75584412 44.00672913 C207.19189453 44.12698364 207.19189453 44.12698364 208.19189453 45.12698364 C208.28037196 47.64792441 208.30716755 50.14129257 208.28955078 52.66213989 C208.28742836 53.79201576 208.28742836 53.79201576 208.28526306 54.94471741 C208.27964829 57.35967924 208.26709336 59.77454965 208.25439453 62.18948364 C208.24938143 63.82294585 208.2448182 65.4564095 208.24072266 67.08987427 C208.22967407 71.10227949 208.21239959 75.11461605 208.19189453 79.12698364 C205.71689453 79.62198364 205.71689453 79.62198364 203.19189453 80.12698364 C205.17189453 85.73698364 207.15189453 91.34698364 209.19189453 97.12698364 C211.66689453 89.20698364 211.66689453 89.20698364 214.19189453 81.12698364 C212.54189453 80.46698364 210.89189453 79.80698364 209.19189453 79.12698364 C209.16724263 74.30317562 209.1490576 69.47940398 209.13696289 64.6555481 C209.13192279 63.013289 209.12509075 61.37103441 209.11645508 59.72879028 C209.10437528 57.37322885 209.09866315 55.01772656 209.09423828 52.66213989 C209.089077 51.92359268 209.08391571 51.18504547 209.07859802 50.42411804 C209.07840203 48.65800276 209.12994734 46.89201219 209.19189453 45.12698364 C210.19189453 44.12698364 210.19189453 44.12698364 212.12655735 44.00393581 C212.98105945 44.00485761 213.83556154 44.0057794 214.71595764 44.00672913 C215.69337418 44.00535446 216.67079071 44.0039798 217.67782593 44.00256348 C218.75891632 44.00615875 219.84000671 44.00975403 220.95385742 44.01345825 C222.65119774 44.01323921 222.65119774 44.01323921 224.38282776 44.01301575 C228.14342124 44.01371545 231.9039659 44.02151053 235.66455078 44.02932739 C238.26386996 44.03119137 240.8631895 44.03261537 243.46250916 44.03361511 C249.6177803 44.03705024 255.77303113 44.04494108 261.9282946 44.0549646 C268.93422799 44.0661267 275.9401622 44.07163643 282.94610226 44.07666004 C297.36137586 44.08712372 311.77663457 44.10472257 326.19189453 44.12698364 C326.85189453 46.43698364 327.51189453 48.74698364 328.19189453 51.12698364 C328.84416016 50.71706177 329.49642578 50.30713989 330.16845703 49.88479614 C331.04244141 49.34596802 331.91642578 48.80713989 332.81689453 48.25198364 C333.67541016 47.71831177 334.53392578 47.18463989 335.41845703 46.63479614 C345.25275186 41.28826402 357.82873369 41.89149832 368.66064453 43.70901489 C377.73064659 46.56293795 385.52728112 53.66073477 390.17236328 61.90042114 C393.56976319 69.32003015 395.59676905 77.15135624 397.19189453 85.12698364 C397.41103516 84.30456177 397.63017578 83.48213989 397.85595703 82.63479614 C402.02482652 67.9590198 408.99780161 57.07525849 422.47314453 49.44338989 C434.02636397 43.84937416 445.04121739 42.90732129 457.69189453 42.81448364 C459.62162109 42.77097778 459.62162109 42.77097778 461.59033203 42.72659302 C474.35038053 42.64315206 486.16011439 44.86433507 496.19189453 53.12698364 C497.11035156 53.84434692 497.11035156 53.84434692 498.04736328 54.57620239 C506.64311249 62.10934242 510.86211127 74.25466177 513.19189453 85.12698364 C513.52060547 83.89335083 513.52060547 83.89335083 513.85595703 82.63479614 C518.02482652 67.9590198 524.99780161 57.07525849 538.47314453 49.44338989 C556.829547 40.55530422 581.50373916 40.00083843 600.87158203 45.91995239 C601.96728516 46.31827271 603.06298828 46.71659302 604.19189453 47.12698364 C605.32884766 47.53561646 606.46580078 47.94424927 607.63720703 48.36526489 C617.41228734 52.16930217 617.41228734 52.16930217 621.19189453 56.12698364 C621.90193881 59.16366974 621.79802381 62.1276169 621.71533203 65.23245239 C621.71062897 66.11226273 621.7059259 66.99207306 621.70108032 67.89854431 C621.67974864 70.70465732 621.62311721 73.50887581 621.56689453 76.31448364 C621.55038784 78.21485655 621.53603966 80.11524953 621.52392578 82.01565552 C621.38741214 95.93146603 621.38741214 95.93146603 620.19189453 97.12698364 C617.46465175 97.22797852 614.7632693 97.26668893 612.03564453 97.25979614 C610.80944397 97.26123123 610.80944397 97.26123123 609.55847168 97.26269531 C607.82674076 97.2633771 606.09500729 97.26152293 604.36328125 97.25735474 C601.70322971 97.25200643 599.04334703 97.25729976 596.38330078 97.26370239 C594.70491499 97.26304161 593.0265293 97.26176045 591.34814453 97.25979614 C590.54711304 97.26182037 589.74608154 97.2638446 588.92077637 97.26593018 C583.30684532 97.24193443 583.30684532 97.24193443 582.19189453 96.12698364 C581.90900272 93.87282986 581.74418263 91.61857709 581.57080078 89.35354614 C581.29988628 86.84778287 581.29988628 86.84778287 579.19189453 84.12698364 C574.60748628 83.00250615 571.33524 82.6897216 567.19189453 85.12698364 C565.66524967 89.70691824 566.00746743 94.26769392 566.00439453 99.06448364 C565.99214844 100.06672974 565.97990234 101.06897583 565.96728516 102.10159302 C565.96535156 103.06774536 565.96341797 104.03389771 565.96142578 105.02932739 C565.95526245 106.35178467 565.95526245 106.35178467 565.94897461 107.70095825 C566.21442403 110.35198429 566.71785955 111.91366807 568.19189453 114.12698364 C578.70745817 119.68237576 591.22433812 117.07347955 602.59301758 115.83914185 C608.16242568 115.2469876 613.58902661 114.94840618 619.19189453 115.12698364 C620.19189453 116.12698364 620.19189453 116.12698364 620.30541992 119.26980591 C620.30526086 120.66101062 620.2995696 122.05222125 620.28955078 123.44338989 C620.28813583 124.17444443 620.28672089 124.90549896 620.28526306 125.65870667 C620.27964861 128.00233996 620.26709375 130.34587904 620.25439453 132.68948364 C620.24938139 134.27476872 620.24481816 135.8600553 620.24072266 137.44534302 C620.2296745 141.33925974 620.21240025 145.2331057 620.19189453 149.12698364 C605.56808709 156.1059929 590.80094778 157.50968317 574.75439453 157.56448364 C574.07915741 157.57056641 573.40392029 157.57664917 572.70822144 157.58291626 C554.94366726 157.68763113 539.47421419 154.02774832 526.37939453 141.47854614 C518.05269078 132.52733961 514.22120779 122.49157153 512.58642578 110.49807739 C512.43648538 108.17775597 512.43648538 108.17775597 511.19189453 107.12698364 C509.25882955 107.03302307 507.32230615 107.00954847 505.38696289 107.01345825 C503.52514626 107.01357155 503.52514626 107.01357155 501.62571716 107.01368713 C500.26105713 107.01879454 498.89639751 107.02401054 497.53173828 107.02932739 C496.1431127 107.03119164 494.75448646 107.03261551 493.36585999 107.03361511 C489.70468338 107.03743978 486.04354623 107.04726961 482.38238525 107.05831909 C478.6489719 107.06853432 474.9155522 107.07311297 471.18212891 107.07815552 C463.85203277 107.08889193 456.52196917 107.10596773 449.19189453 107.12698364 C450.82995156 111.86280415 450.82995156 111.86280415 454.03173828 115.46682739 C468.17710455 119.49707141 484.56564123 116.66185825 498.61767578 113.03713989 C501.99621007 112.17681367 504.72681541 111.87344127 508.19189453 112.12698364 C509.19189453 113.12698364 509.19189453 113.12698364 509.30541992 116.36160278 C509.30526084 117.7951249 509.29956861 119.22865277 509.28955078 120.66213989 C509.28813583 121.41539047 509.28672089 122.16864105 509.28526306 122.94471741 C509.27964829 125.35967924 509.26709336 127.77454965 509.25439453 130.18948364 C509.24938143 131.82294585 509.2448182 133.4564095 509.24072266 135.08987427 C509.22967407 139.10227949 509.21239959 143.11461605 509.19189453 147.12698364 C504.34687148 149.69397662 499.68800408 151.78114654 494.37939453 153.25198364 C493.27982422 153.56393677 492.18025391 153.87588989 491.04736328 154.19729614 C481.28552552 156.55121447 471.99785277 157.47334731 461.97705078 157.44265747 C459.82679416 157.43949819 457.67791978 157.46304259 455.52783203 157.48831177 C438.20710188 157.56884036 423.14708667 153.71425111 410.37939453 141.47854614 C403.43505766 134.01338401 398.9910097 125.17352773 397.19189453 115.12698364 C396.96115234 116.16596802 396.73041016 117.20495239 396.49267578 118.27542114 C393.35190085 131.9308217 389.02112743 144.84319252 376.52783203 152.83010864 C366.38412341 158.03661395 353.23821389 159.48523928 342.1015625 156.58206177 C336.86938663 154.59981537 332.63306995 151.45786521 328.19189453 148.12698364 C327.86189453 153.07698364 327.53189453 158.02698364 327.19189453 163.12698364 C329.15126953 163.10635864 331.11064453 163.08573364 333.12939453 163.06448364 C335.1502233 163.04321176 337.17225254 163.05454311 339.19189453 163.12698364 C340.92482433 164.85991344 340.32009499 167.089127 340.33084106 169.39846802 C340.32780472 170.50158325 340.32780472 170.50158325 340.32470703 171.62698364 C340.32614212 172.753302 340.32614212 172.753302 340.3276062 173.90237427 C340.32828791 175.49286991 340.32643425 177.08336832 340.32226562 178.67385864 C340.3169172 181.11663019 340.32221087 183.55921786 340.32861328 186.00198364 C340.3279525 187.54365072 340.32667133 189.08531768 340.32470703 190.62698364 C340.32673126 191.3623938 340.32875549 192.09780396 340.33084106 192.85549927 C340.30684614 198.01203204 340.30684614 198.01203204 339.19189453 199.12698364 C337.01926773 199.22654642 334.84336347 199.25498083 332.66845703 199.25637817 C331.98716736 199.25813049 331.30587769 199.25988281 330.60394287 199.26168823 C328.34156786 199.26610606 326.0792704 199.26316902 323.81689453 199.25979614 C322.25130193 199.2604692 320.68570943 199.26143924 319.12011719 199.26269531 C315.83478808 199.26417219 312.54948611 199.26201805 309.26416016 199.25735474 C305.04368937 199.25165745 300.82328217 199.25493651 296.60281372 199.2609272 C293.36872881 199.26453309 290.13465909 199.2633941 286.90057373 199.26079941 C285.34397372 199.26013021 283.78737235 199.2609583 282.23077393 199.26327896 C280.05892257 199.26580594 277.88717557 199.26196429 275.71533203 199.25637817 C274.47702637 199.25558258 273.2387207 199.25478699 271.96289062 199.25396729 C269.19189453 199.12698364 269.19189453 199.12698364 268.19189453 198.12698364 C268.09102241 195.61774211 268.05217421 193.1366198 268.05908203 190.62698364 C268.05764694 189.50066528 268.05764694 189.50066528 268.05618286 188.35159302 C268.05550115 186.76109738 268.05735481 185.17059897 268.06152344 183.58010864 C268.06687186 181.1373371 268.06157819 178.69474943 268.05517578 176.25198364 C268.05583656 174.71031657 268.05711773 173.16864961 268.05908203 171.62698364 C268.0570578 170.89157349 268.05503357 170.15616333 268.052948 169.39846802 C268.07694292 164.24193525 268.07694292 164.24193525 269.19189453 163.12698364 C271.83189453 163.12698364 274.47189453 163.12698364 277.19189453 163.12698364 C277.19189453 135.73698364 277.19189453 108.34698364 277.19189453 80.12698364 C273.89189453 80.12698364 270.59189453 80.12698364 267.19189453 80.12698364 C265.53335449 80.0613623 265.53335449 80.0613623 263.84130859 79.99441528 C260.58085001 81.38819222 260.35384952 82.25159684 258.92529297 85.41775513 C258.19202428 87.35180633 257.48591178 89.29628283 256.80126953 91.24807739 C256.41496872 92.28677979 256.02866791 93.32548218 255.63066101 94.3956604 C254.37853844 97.77744702 253.16070838 101.17056776 251.94189453 104.56448364 C251.08913334 106.87933625 250.23374438 109.19322251 249.37573242 111.50613403 C247.31338777 117.07710361 245.27406957 122.65610456 243.24371338 128.23880005 C222.65570221 184.77130677 222.65570221 184.77130677 200.25439453 196.10745239 C186.22750336 202.54652097 166.75608169 200.34292018 152.30126953 196.29495239 C146.61130525 194.15764169 146.61130525 194.15764169 144.19189453 192.12698364 C143.72568972 189.08046197 143.58361711 186.59775439 143.66845703 183.55667114 C143.6731601 182.71983795 143.67786316 181.88300476 143.68270874 181.02081299 C143.70407102 178.34703483 143.76071164 175.67523303 143.81689453 173.00198364 C143.8333979 171.19340847 143.84774694 169.38481227 143.85986328 167.57620239 C143.99646842 154.32240975 143.99646842 154.32240975 145.19189453 153.12698364 C147.41044717 153.03914823 149.63177949 153.02003755 151.85205078 153.02932739 C152.84875038 153.03144981 152.84875038 153.03144981 153.86558533 153.03361511 C155.99523352 153.03922846 158.12477793 153.0517831 160.25439453 153.06448364 C161.69514823 153.06949693 163.13590356 153.07406013 164.57666016 153.07815552 C168.11510555 153.08920219 171.65348992 153.10647572 175.19189453 153.12698364 C176.18189453 155.10698364 177.17189453 157.08698364 178.19189453 159.12698364 C179.51189453 158.46698364 180.83189453 157.80698364 182.19189453 157.12698364 C181.9760672 156.57084381 181.76023987 156.01470398 181.53787231 155.44171143 C176.61929915 142.76713128 171.70344878 130.09150005 166.79173279 117.41426086 C164.69028075 111.99089235 162.58700494 106.56825 160.47851562 101.14761353 C159.31803972 98.16251413 158.16147101 95.17590203 157.00439453 92.18948364 C156.60172363 91.15775024 156.19905273 90.12601685 155.78417969 89.0630188 C155.4301709 88.14697876 155.07616211 87.23093872 154.71142578 86.28713989 C154.41341064 85.52022827 154.11539551 84.75331665 153.80834961 83.96316528 C153.19189453 82.12698364 153.19189453 82.12698364 153.19189453 80.12698364 C152.05751953 80.14760864 150.92314453 80.16823364 149.75439453 80.18948364 C146.19189453 80.12698364 146.19189453 80.12698364 145.19189453 79.12698364 C145.03364195 77.12916238 144.94070282 75.1260953 144.87548828 73.12307739 C144.81264648 71.30066528 144.81264648 71.30066528 144.74853516 69.44143677 C144.70921875 68.16204224 144.66990234 66.88264771 144.62939453 65.56448364 C144.58621094 64.28122192 144.54302734 62.99796021 144.49853516 61.67581177 C144.39204653 58.49298511 144.29003491 55.31007691 144.19189453 52.12698364 C143.0762915 52.13222046 141.96068848 52.13745728 140.8112793 52.14285278 C136.6871012 52.16090139 132.56292663 52.17241513 128.4387207 52.18191528 C126.65095432 52.18695583 124.86319209 52.19378818 123.07543945 52.2024231 C120.51138285 52.21450095 117.94738056 52.22021459 115.38330078 52.22463989 C114.17704796 52.23238182 114.17704796 52.23238182 112.94642639 52.24028015 C111.02787738 52.24047579 109.10944085 52.18900347 107.19189453 52.12698364 C106.19189453 51.12698364 106.19189453 51.12698364 106.09423828 47.74807739 C106.10091084 46.35351287 106.11286921 44.95896622 106.12939453 43.56448364 C106.13390625 42.85356567 106.13841797 42.14264771 106.14306641 41.41018677 C106.15488589 39.64908351 106.1728219 37.88802328 106.19189453 36.12698364 C103.88189453 36.12698364 101.57189453 36.12698364 99.19189453 36.12698364 C99.19189453 63.84698364 99.19189453 91.56698364 99.19189453 120.12698364 C103.15189453 120.12698364 107.11189453 120.12698364 111.19189453 120.12698364 C112.92482433 121.85991344 112.32009499 124.089127 112.33084106 126.39846802 C112.32780472 127.50158325 112.32780472 127.50158325 112.32470703 128.62698364 C112.32566376 129.37786255 112.32662048 130.12874146 112.3276062 130.90237427 C112.32828791 132.49286991 112.32643425 134.08336832 112.32226562 135.67385864 C112.3169172 138.11663019 112.32221087 140.55921786 112.32861328 143.00198364 C112.3279525 144.54365072 112.32667133 146.08531768 112.32470703 147.62698364 C112.32673126 148.3623938 112.32875549 149.09780396 112.33084106 149.85549927 C112.30684614 155.01203204 112.30684614 155.01203204 111.19189453 156.12698364 C108.58039165 156.22739822 105.99531088 156.26315421 103.38330078 156.25637817 C102.15654129 156.25900665 102.15654129 156.25900665 100.90499878 156.26168823 C98.18810943 156.26610749 95.4712846 156.2631685 92.75439453 156.25979614 C90.87491849 156.26046916 88.99544254 156.26143917 87.1159668 156.26269531 C83.17154107 156.26417239 79.22713795 156.26201743 75.28271484 156.25735474 C70.2147695 156.25165744 65.14687711 156.2549364 60.07893372 156.2609272 C56.19632566 156.26453256 52.31373025 156.26339434 48.43112183 156.26079941 C46.5619201 156.26013007 44.69271725 156.2609588 42.82351685 156.26327896 C40.21580949 156.26580508 37.60818912 156.26196548 35.00048828 156.25637817 C34.22019257 156.2584024 33.43989685 156.26042664 32.63595581 156.26251221 C27.30615707 156.24124618 27.30615707 156.24124618 26.19189453 155.12698364 C26.09102241 152.61774211 26.05217421 150.1366198 26.05908203 147.62698364 C26.05812531 146.87610474 26.05716858 146.12522583 26.05618286 145.35159302 C26.05550115 143.76109738 26.05735481 142.17059897 26.06152344 140.58010864 C26.06687186 138.1373371 26.06157819 135.69474943 26.05517578 133.25198364 C26.05583656 131.71031657 26.05711773 130.16864961 26.05908203 128.62698364 C26.0570578 127.89157349 26.05503357 127.15616333 26.052948 126.39846802 C26.07694292 121.24193525 26.07694292 121.24193525 27.19189453 120.12698364 C31.15189453 120.12698364 35.11189453 120.12698364 39.19189453 120.12698364 C39.19189453 92.40698364 39.19189453 64.68698364 39.19189453 36.12698364 C36.88189453 36.12698364 34.57189453 36.12698364 32.19189453 36.12698364 C32.20349609 37.19819458 32.21509766 38.26940552 32.22705078 39.37307739 C32.23642752 40.77021107 32.24552784 42.16734663 32.25439453 43.56448364 C32.26277344 44.27153442 32.27115234 44.97858521 32.27978516 45.70706177 C32.28843041 47.51391924 32.24409465 49.32085967 32.19189453 51.12698364 C30.37624017 52.94263801 27.87919491 52.25560264 25.4630127 52.26593018 C24.6619812 52.26390594 23.86094971 52.26188171 23.03564453 52.25979614 C21.80944397 52.26123123 21.80944397 52.26123123 20.55847168 52.26269531 C18.82674076 52.2633771 17.09500729 52.26152293 15.36328125 52.25735474 C12.70322971 52.25200643 10.04334703 52.25729976 7.38330078 52.26370239 C5.70491499 52.26304161 4.0265293 52.26176045 2.34814453 52.25979614 C1.54711304 52.26182037 0.74608154 52.2638446 -0.07922363 52.26593018 C-5.69315468 52.24193443 -5.69315468 52.24193443 -6.80810547 51.12698364 C-6.90657513 49.56699316 -6.93609165 48.0025782 -6.9375 46.43948364 C-6.94065216 45.44174927 -6.94380432 44.44401489 -6.947052 43.41604614 C-6.94502777 42.33065552 -6.94300354 41.24526489 -6.94091797 40.12698364 C-6.94187469 39.02096802 -6.94283142 37.91495239 -6.94381714 36.77542114 C-6.94449913 34.43167057 -6.94264351 32.08791811 -6.93847656 29.74417114 C-6.93312861 26.14256577 -6.93842093 22.54108511 -6.94482422 18.93948364 C-6.94416344 16.66865003 -6.94288229 14.3978165 -6.94091797 12.12698364 C-6.9429422 11.04159302 -6.94496643 9.95620239 -6.947052 8.83792114 C-6.94389984 7.84018677 -6.94074768 6.84245239 -6.9375 5.81448364 C-6.93670441 4.93147583 -6.93590881 4.04846802 -6.93508911 3.13870239 C-6.66710152 -1.1068496 -3.57546469 0.00122113 0 0 Z M450.56689453 78.00198364 C449.01081077 79.98499751 449.01081077 79.98499751 449.19189453 82.12698364 C454.80189453 82.12698364 460.41189453 82.12698364 466.19189453 82.12698364 C465.5634748 78.15556674 465.5634748 78.15556674 463.19189453 76.12698364 C458.52419362 75.42764169 454.46919291 75.21462766 450.56689453 78.00198364 Z M327.19189453 86.12698364 C326.61456582 89.14413193 326.61456582 89.14413193 326.73095703 92.38088989 C326.73482422 93.5648938 326.73869141 94.74889771 326.74267578 95.96878052 C326.76716797 97.19661255 326.79166016 98.42444458 326.81689453 99.68948364 C326.81818359 100.92118286 326.81947266 102.15288208 326.82080078 103.42190552 C326.62674441 110.61253808 326.62674441 110.61253808 329.19189453 117.12698364 C332.14947045 118.85223626 333.88645513 119.14531001 337.31689453 118.93948364 C340.26529291 118.10624062 341.36940838 117.52499173 343.19189453 115.12698364 C345.41114438 110.68848395 344.46665177 104.68833161 344.50439453 99.81448364 C344.54790039 97.95920044 344.54790039 97.95920044 344.59228516 96.06643677 C344.60066406 94.87340942 344.60904297 93.68038208 344.61767578 92.45120239 C344.6322583 91.35896362 344.64684082 90.26672485 344.66186523 89.14138794 C344.08322697 85.42998711 342.80133432 83.77865226 340.19189453 81.12698364 C337.99478959 80.34727985 337.99478959 80.34727985 335.69189453 80.50198364 C334.93908203 80.48909302 334.18626953 80.47620239 333.41064453 80.46292114 C330.09861264 81.45419829 329.07726641 83.28480137 327.19189453 86.12698364 Z " fill="#000000" transform="translate(23.80810546875,65.87301635742188)"/>
<path d="M0 0 C0.7106662 -0.01460266 1.4213324 -0.02920532 2.15353394 -0.04425049 C8.72470738 -0.17046612 15.2971089 -0.239048 21.86924171 -0.29209328 C26.2854722 -0.32783002 30.69987714 -0.38105086 35.11523438 -0.47753906 C39.38301548 -0.57052655 43.6491824 -0.6190401 47.91791916 -0.63648605 C49.54234006 -0.65055714 51.16670589 -0.6801461 52.79054642 -0.72578812 C65.47801873 -1.06486617 65.47801873 -1.06486617 69.69700623 2.16360474 C71.51075781 4.45436261 72.86572362 6.66521475 74.20458984 9.25634766 C75.17955447 10.76592461 76.16385189 12.26955813 77.16162109 13.76416016 C78.1176852 15.30059163 79.06940522 16.83973354 80.01708984 18.38134766 C83.60794243 24.14327034 87.22556362 29.87417463 91.01708984 35.50634766 C97.37013233 44.9490197 103.55504098 54.50166351 109.75927734 64.04248047 C110.89804133 65.7867899 112.04908146 67.52308508 113.20458984 69.25634766 C113.53458984 58.36634766 113.86458984 47.47634766 114.20458984 36.25634766 C111.56458984 36.25634766 108.92458984 36.25634766 106.20458984 36.25634766 C104.47166005 34.52341786 105.07638938 32.2942043 105.06564331 29.98486328 C105.06867966 28.88174805 105.06867966 28.88174805 105.07177734 27.75634766 C105.07082062 27.00546875 105.06986389 26.25458984 105.06887817 25.48095703 C105.06819646 23.89046139 105.07005013 22.29996298 105.07421875 20.70947266 C105.07956717 18.26670111 105.0742735 15.82411344 105.06787109 13.38134766 C105.06853188 11.83968058 105.06981304 10.29801362 105.07177734 8.75634766 C105.06975311 8.0209375 105.06772888 7.28552734 105.06564331 6.52783203 C105.08963824 1.37129926 105.08963824 1.37129926 106.20458984 0.25634766 C108.28534394 0.15690793 110.36950833 0.1283517 112.45263672 0.12695312 C113.10466568 0.12520081 113.75669464 0.12344849 114.42848206 0.12164307 C116.59346137 0.11722562 118.75835963 0.12016214 120.92333984 0.12353516 C122.42167171 0.12286209 123.92000347 0.12189203 125.41833496 0.12063599 C128.56242917 0.11915916 131.70649502 0.12131308 134.85058594 0.12597656 C138.88945523 0.13167385 142.92825808 0.12839476 146.96712494 0.1224041 C150.06224065 0.11879807 153.15734049 0.11993726 156.25245667 0.12253189 C157.74207059 0.12320105 159.23168595 0.12237314 160.72129822 0.12005234 C162.79975219 0.11752512 164.87809715 0.12136733 166.95654297 0.12695312 C168.14155396 0.12774872 169.32656494 0.12854431 170.54748535 0.12936401 C173.20458984 0.25634766 173.20458984 0.25634766 174.20458984 1.25634766 C174.30546196 3.76558919 174.34431017 6.24671149 174.33740234 8.75634766 C174.33835907 9.50722656 174.3393158 10.25810547 174.34030151 11.03173828 C174.34098323 12.62223392 174.33912956 14.21273233 174.33496094 15.80322266 C174.32961251 18.2459942 174.33490618 20.68858187 174.34130859 23.13134766 C174.34064781 24.67301473 174.33936664 26.21468169 174.33740234 27.75634766 C174.33942657 28.49175781 174.34145081 29.22716797 174.34353638 29.98486328 C174.31954145 35.14139605 174.31954145 35.14139605 173.20458984 36.25634766 C171.68530947 36.3281473 170.16291503 36.34026773 168.64208984 36.31884766 C167.81580078 36.30982422 166.98951172 36.30080078 166.13818359 36.29150391 C165.50009766 36.27990234 164.86201172 36.26830078 164.20458984 36.25634766 C164.20597253 37.17490618 164.20597253 37.17490618 164.20738316 38.11202145 C164.2294388 52.99186254 164.2460016 67.87170206 164.25640202 82.75155544 C164.26156487 89.9472506 164.26860738 97.14293487 164.2800293 104.33862305 C164.28997645 110.6081946 164.29644335 116.87775827 164.29867834 123.1473375 C164.29998539 126.46900386 164.30358982 129.79064232 164.3103199 133.11230278 C164.31752612 136.81454713 164.31858096 140.51674397 164.31811523 144.21899414 C164.32171051 145.32813675 164.32530579 146.43727936 164.32901001 147.58003235 C164.32763535 148.58269135 164.32626068 149.58535034 164.32484436 150.61839294 C164.32622705 151.93333064 164.32622705 151.93333064 164.32763767 153.27483273 C164.20458984 155.25634766 164.20458984 155.25634766 163.20458984 156.25634766 C161.4325694 156.39718417 159.65499377 156.46871078 157.87792969 156.51269531 C156.73939545 156.54166901 155.60086121 156.5706427 154.42782593 156.60049438 C149.88484954 156.68491769 145.3418961 156.75786825 140.79836082 156.80478859 C137.35042079 156.84049301 133.90482561 156.89361949 130.45800781 156.99023438 C126.48566606 157.10124447 122.51432322 157.13811461 118.54052734 157.17041016 C117.3111142 157.21372467 116.08170105 157.25703918 114.81503296 157.30166626 C106.4266384 157.28320071 106.4266384 157.28320071 102.91712952 154.33425903 C101.11445475 152.05100861 99.63750772 149.78466287 98.20458984 147.25634766 C97.31718018 145.89142082 96.42599968 144.52892748 95.52880859 143.17041016 C94.64617842 141.74301864 93.76744478 140.31321227 92.89208984 138.88134766 C87.78877344 130.66248912 82.47016165 122.60045467 77.07958984 114.56884766 C71.68157462 106.52291278 66.32497002 98.46379372 61.28417969 90.18725586 C58.75130464 86.04195471 56.05074769 82.24096864 53.20458984 78.25634766 C52.87458984 92.11634766 52.54458984 105.97634766 52.20458984 120.25634766 C54.84458984 120.25634766 57.48458984 120.25634766 60.20458984 120.25634766 C61.93751964 121.98927745 61.33279031 124.21849102 61.34353638 126.52783203 C61.34050003 127.63094727 61.34050003 127.63094727 61.33740234 128.75634766 C61.33835907 129.50722656 61.3393158 130.25810547 61.34030151 131.03173828 C61.34098323 132.62223392 61.33912956 134.21273233 61.33496094 135.80322266 C61.32961251 138.2459942 61.33490618 140.68858187 61.34130859 143.13134766 C61.34064781 144.67301473 61.33936664 146.21468169 61.33740234 147.75634766 C61.33942657 148.49175781 61.34145081 149.22716797 61.34353638 149.98486328 C61.31954145 155.14139605 61.31954145 155.14139605 60.20458984 156.25634766 C58.12383575 156.35578738 56.03967136 156.38434362 53.95654297 156.38574219 C53.30451401 156.38749451 52.65248505 156.38924683 51.98069763 156.39105225 C49.81571832 156.3954697 47.65082005 156.39253317 45.48583984 156.38916016 C43.98750798 156.38983323 42.48917622 156.39080328 40.99084473 156.39205933 C37.84675052 156.39353615 34.70268467 156.39138224 31.55859375 156.38671875 C27.51972445 156.38102146 23.4809216 156.38430055 19.44205475 156.39029121 C16.34693904 156.39389724 13.2518392 156.39275805 10.15672302 156.39016342 C8.66710909 156.38949427 7.17749374 156.39032218 5.68788147 156.39264297 C3.60942749 156.39517019 1.53108253 156.39132798 -0.54736328 156.38574219 C-2.32487976 156.3845488 -2.32487976 156.3845488 -4.13830566 156.3833313 C-6.79541016 156.25634766 -6.79541016 156.25634766 -7.79541016 155.25634766 C-7.89628227 152.74710612 -7.93513048 150.26598382 -7.92822266 147.75634766 C-7.92917938 147.00546875 -7.93013611 146.25458984 -7.93112183 145.48095703 C-7.93180354 143.89046139 -7.92994987 142.29996298 -7.92578125 140.70947266 C-7.92043283 138.26670111 -7.9257265 135.82411344 -7.93212891 133.38134766 C-7.93146812 131.83968058 -7.93018696 130.29801362 -7.92822266 128.75634766 C-7.93024689 128.0209375 -7.93227112 127.28552734 -7.93435669 126.52783203 C-7.91036176 121.37129926 -7.91036176 121.37129926 -6.79541016 120.25634766 C-3.82541016 120.25634766 -0.85541016 120.25634766 2.20458984 120.25634766 C2.20458984 92.53634766 2.20458984 64.81634766 2.20458984 36.25634766 C-0.76541016 36.25634766 -3.73541016 36.25634766 -6.79541016 36.25634766 C-8.52833995 34.52341786 -7.92361062 32.2942043 -7.93435669 29.98486328 C-7.93233246 29.24945313 -7.93030823 28.51404297 -7.92822266 27.75634766 C-7.92917938 27.00546875 -7.93013611 26.25458984 -7.93112183 25.48095703 C-7.93180354 23.89046139 -7.92994987 22.29996298 -7.92578125 20.70947266 C-7.92043283 18.26670111 -7.9257265 15.82411344 -7.93212891 13.38134766 C-7.93146812 11.83968058 -7.93018696 10.29801362 -7.92822266 8.75634766 C-7.93024689 8.0209375 -7.93227112 7.28552734 -7.93435669 6.52783203 C-7.90189003 -0.449285 -6.76997883 0.1306803 0 0 Z " fill="#000000" transform="translate(1124.79541015625,65.74365234375)"/>
<path d="M0 0 C1.08628693 0.00303635 1.08628693 0.00303635 2.19451904 0.00613403 C3.3334964 0.00350555 3.3334964 0.00350555 4.4954834 0.00082397 C7.0175807 -0.00359473 9.53960847 -0.00065649 12.06170654 0.00271606 C13.80666111 0.00204303 15.55161558 0.00107301 17.29656982 -0.00018311 C20.95852549 -0.0016601 24.62045682 0.00049454 28.28240967 0.00515747 C32.98715147 0.01085476 37.69183622 0.00757577 42.39657593 0.00158501 C46.00124546 -0.00202055 49.60590136 -0.00088204 53.21057129 0.0017128 C54.94580085 0.00238208 56.68103163 0.0015536 58.41625977 -0.00076675 C60.83717142 -0.0032932 63.25798941 0.00054718 65.67889404 0.00613403 C66.40308533 0.0041098 67.12727661 0.00208557 67.87341309 0 C72.82244388 0.0212659 72.82244388 0.0212659 73.93670654 1.13552856 C74.03757866 3.6447701 74.07642687 6.1258924 74.06951904 8.63552856 C74.07047577 9.38640747 74.0714325 10.13728638 74.07241821 10.91091919 C74.07309992 12.50141483 74.07124626 14.09191324 74.06707764 15.68240356 C74.06172921 18.12517511 74.06702288 20.56776278 74.07342529 23.01052856 C74.07276451 24.55219564 74.07148334 26.0938626 74.06951904 27.63552856 C74.07154327 28.37093872 74.0735675 29.10634888 74.07565308 29.86404419 C74.05165815 35.02057696 74.05165815 35.02057696 72.93670654 36.13552856 C70.29670654 36.46552856 67.65670654 36.79552856 64.93670654 37.13552856 C68.23670654 53.30552856 71.53670654 69.47552856 74.93670654 86.13552856 C75.26670654 86.13552856 75.59670654 86.13552856 75.93670654 86.13552856 C79.23670654 69.96552856 82.53670654 53.79552856 85.93670654 37.13552856 C83.29670654 36.80552856 80.65670654 36.47552856 77.93670654 36.13552856 C76.20377675 34.40259877 76.80850608 32.1733852 76.79776001 29.86404419 C76.80079636 28.76092896 76.80079636 28.76092896 76.80389404 27.63552856 C76.80293732 26.88464966 76.80198059 26.13377075 76.80099487 25.36013794 C76.80031316 23.7696423 76.80216683 22.17914389 76.80633545 20.58865356 C76.81168387 18.14588202 76.8063902 15.70329435 76.79998779 13.26052856 C76.80064858 11.71886149 76.80192974 10.17719453 76.80389404 8.63552856 C76.80186981 7.90011841 76.79984558 7.16470825 76.79776001 6.40701294 C76.82175494 1.25048017 76.82175494 1.25048017 77.93670654 0.13552856 C80.04808555 0.03604664 82.1628294 0.00753218 84.27655029 0.00613403 C84.93833282 0.00438171 85.60011536 0.00262939 86.2819519 0.00082397 C88.47939644 -0.00359361 90.67676113 -0.0006569 92.87420654 0.00271606 C94.39495865 0.002043 95.91571066 0.00107295 97.4364624 -0.00018311 C100.62763491 -0.00165995 103.81877947 0.00049404 107.00994873 0.00515747 C111.10935185 0.01085476 115.2086895 0.00757568 119.30809021 0.00158501 C122.44952898 -0.00202097 125.59095212 -0.00088185 128.73239136 0.0017128 C130.24433398 0.00238197 131.756278 0.001554 133.26821899 -0.00076675 C135.37780541 -0.00329389 137.48728442 0.00054813 139.59686279 0.00613403 C140.79963867 0.00692963 142.00241455 0.00772522 143.24163818 0.00854492 C145.93670654 0.13552856 145.93670654 0.13552856 146.93670654 1.13552856 C147.03757866 3.6447701 147.07642687 6.1258924 147.06951904 8.63552856 C147.07047577 9.38640747 147.0714325 10.13728638 147.07241821 10.91091919 C147.07309992 12.50141483 147.07124626 14.09191324 147.06707764 15.68240356 C147.06172921 18.12517511 147.06702288 20.56776278 147.07342529 23.01052856 C147.07276451 24.55219564 147.07148334 26.0938626 147.06951904 27.63552856 C147.07154327 28.37093872 147.0735675 29.10634888 147.07565308 29.86404419 C147.05165815 35.02057696 147.05165815 35.02057696 145.93670654 36.13552856 C143.60373221 36.17645794 141.2696543 36.1779458 138.93670654 36.13552856 C138.71845215 37.3940564 138.50019775 38.65258423 138.27532959 39.94924927 C136.56401787 48.47559014 133.96095842 56.77725906 131.51873779 65.11599731 C130.97753366 66.97465186 130.43666174 68.83340316 129.89610291 70.69224548 C128.76301773 74.58546569 127.627209 78.47787662 126.48919678 82.36965942 C125.05105961 87.28793131 123.6177059 92.20757958 122.18611336 97.12775993 C112.49133167 130.44425231 112.49133167 130.44425231 107.69842529 146.31130981 C107.42206741 147.23203781 107.14570953 148.15276581 106.86097717 149.10139465 C105.05763593 155.01459918 105.05763593 155.01459918 103.93670654 156.13552856 C101.85051632 156.22970629 99.76110177 156.25295734 97.67279053 156.24905396 C96.69233765 156.24927299 96.69233765 156.24927299 95.69207764 156.24949646 C93.52228526 156.24879739 91.35257775 156.24100534 89.18280029 156.23318481 C87.68207343 156.23132061 86.18134597 156.22989672 84.68061829 156.22889709 C80.72352428 156.22507209 76.76646676 156.21524196 72.80938721 156.20419312 C68.77435805 156.19397862 64.73932302 156.18939939 60.70428467 156.18435669 C52.78174185 156.17361967 44.85922873 156.15654346 36.93670654 156.13552856 C34.90112109 150.85316073 33.09475445 145.58002579 31.5199585 140.14431763 C31.29828506 139.38833282 31.07661163 138.63234802 30.84822083 137.85345459 C30.12088193 135.37019991 29.3978802 132.88570594 28.67498779 130.40115356 C28.16059572 128.64113435 27.64595769 126.881187 27.13108826 125.12130737 C26.05086219 121.42671278 24.9726041 117.7315519 23.89593506 114.03591919 C22.5416143 109.38729113 21.18403351 104.73962426 19.8251667 100.0923233 C16.51669916 88.77696372 13.22006094 77.45820099 9.93670654 66.13552856 C9.71605278 65.37468964 9.49539902 64.61385071 9.26805878 63.82995605 C7.89556596 59.0948518 6.52939655 54.35797308 5.16717529 49.61990356 C4.83293045 48.46363464 4.49868561 47.30736572 4.15431213 46.11605835 C3.85715805 45.07802063 3.56000397 44.03998291 3.25384521 42.9704895 C2.9970549 42.07682678 2.74026459 41.18316406 2.47569275 40.26242065 C1.93670654 38.13552856 1.93670654 38.13552856 1.93670654 36.13552856 C0.23514404 36.16646606 0.23514404 36.16646606 -1.50079346 36.19802856 C-5.06329346 36.13552856 -5.06329346 36.13552856 -6.06329346 35.13552856 C-6.16416558 32.62628703 -6.20301378 30.14516473 -6.19610596 27.63552856 C-6.19706268 26.88464966 -6.19801941 26.13377075 -6.19900513 25.36013794 C-6.19968684 23.7696423 -6.19783317 22.17914389 -6.19366455 20.58865356 C-6.18831613 18.14588202 -6.1936098 15.70329435 -6.20001221 13.26052856 C-6.19935142 11.71886149 -6.19807026 10.17719453 -6.19610596 8.63552856 C-6.19813019 7.90011841 -6.20015442 7.16470825 -6.20223999 6.40701294 C-6.17434522 0.41240026 -6.01283864 0.02583706 0 0 Z " fill="#000000" transform="translate(969.0632934570313,65.86447143554688)"/>
<path d="M0 0 C1.11785889 -0.00315216 2.23571777 -0.00630432 3.38745117 -0.009552 C5.21240112 -0.00651566 5.21240112 -0.00651566 7.07421875 -0.00341797 C8.31341064 -0.00437469 9.55260254 -0.00533142 10.8293457 -0.00631714 C13.45560156 -0.00699921 16.08176508 -0.00564085 18.70800781 -0.00097656 C22.08100589 0.00472073 25.4539244 0.00144151 28.82691956 -0.00454903 C32.03435552 -0.00902317 35.24178175 -0.00589429 38.44921875 -0.00341797 C39.66585205 -0.0054422 40.88248535 -0.00746643 42.13598633 -0.009552 C43.81277466 -0.00482376 43.81277466 -0.00482376 45.5234375 0 C46.51303467 0.00079559 47.50263184 0.00159119 48.5222168 0.00241089 C50.76171875 0.12939453 50.76171875 0.12939453 51.76171875 1.12939453 C51.88471041 2.816488 51.93957133 4.50860356 51.96704102 6.19995117 C51.99695885 7.82151878 51.99695885 7.82151878 52.02748108 9.47584534 C52.04419357 10.65186813 52.06090607 11.82789093 52.078125 13.03955078 C52.0989061 14.23672226 52.11968719 15.43389374 52.14109802 16.66734314 C52.20672154 20.5087994 52.26553778 24.35032654 52.32421875 28.19189453 C52.3673918 30.7889072 52.41100568 33.38591259 52.45507812 35.98291016 C52.56241591 42.3649957 52.66415806 48.74715246 52.76171875 55.12939453 C53.54530762 54.41275635 53.54530762 54.41275635 54.34472656 53.68164062 C55.39418457 52.73925537 55.39418457 52.73925537 56.46484375 51.77783203 C57.15223633 51.15569824 57.83962891 50.53356445 58.54785156 49.89257812 C66.33261289 43.69258404 74.87847673 42.91177961 84.44921875 42.81689453 C85.88297852 42.77338867 85.88297852 42.77338867 87.34570312 42.72900391 C96.87909115 42.64452262 104.0055804 45.57734496 110.97265625 52.08642578 C119.11421752 61.3834488 120.08505837 73.32913354 119.95703125 85.16845703 C119.95420135 86.17532562 119.95137146 87.18219421 119.94845581 88.21957397 C119.93736704 91.39797454 119.91228418 94.57608085 119.88671875 97.75439453 C119.87667432 99.92496334 119.86755105 102.09553663 119.859375 104.26611328 C119.83746491 109.55397208 119.80410211 114.84166227 119.76171875 120.12939453 C120.89609375 120.10876953 122.03046875 120.08814453 123.19921875 120.06689453 C126.76171875 120.12939453 126.76171875 120.12939453 127.76171875 121.12939453 C127.86259087 123.63863607 127.90143907 126.11975837 127.89453125 128.62939453 C127.89548798 129.38027344 127.8964447 130.13115234 127.89743042 130.90478516 C127.89811213 132.4952808 127.89625847 134.08577921 127.89208984 135.67626953 C127.88674142 138.11904108 127.89203509 140.56162874 127.8984375 143.00439453 C127.89777672 144.54606161 127.89649555 146.08772857 127.89453125 147.62939453 C127.89655548 148.36480469 127.89857971 149.10021484 127.90066528 149.85791016 C127.87667036 155.01444292 127.87667036 155.01444292 126.76171875 156.12939453 C124.77284381 156.22869986 122.78041458 156.25738915 120.7890625 156.25878906 C119.5110376 156.26194122 118.2330127 156.26509338 116.91625977 156.26834106 C115.51057908 156.26655128 114.1048987 156.26450033 112.69921875 156.26220703 C111.26814762 156.26288011 109.8370766 156.26385018 108.40600586 156.2651062 C105.40314651 156.26658297 102.40031685 156.2644293 99.39746094 156.25976562 C95.54019304 156.25406834 91.68299471 156.25734745 87.82572937 156.26333809 C84.86958284 156.26694427 81.91345292 156.26580486 78.95730591 156.2632103 C77.53467806 156.26254119 76.11204872 156.2633689 74.68942261 156.26568985 C72.70440701 156.26821727 70.71938616 156.26368496 68.734375 156.25878906 C67.03680054 156.25759567 67.03680054 156.25759567 65.30493164 156.25637817 C62.76171875 156.12939453 62.76171875 156.12939453 61.76171875 155.12939453 C61.66084663 152.620153 61.62199843 150.13903069 61.62890625 147.62939453 C61.62794952 146.87851563 61.6269928 146.12763672 61.62600708 145.35400391 C61.62532537 143.76350826 61.62717903 142.17300986 61.63134766 140.58251953 C61.63669608 138.13974799 61.63140241 135.69716032 61.625 133.25439453 C61.62566078 131.71272746 61.62694195 130.1710605 61.62890625 128.62939453 C61.62688202 127.89398438 61.62485779 127.15857422 61.62277222 126.40087891 C61.64676714 121.24434614 61.64676714 121.24434614 62.76171875 120.12939453 C65.09469308 120.08846516 67.428771 120.0869773 69.76171875 120.12939453 C69.64327267 115.50276126 69.51901103 110.87633411 69.3894043 106.25 C69.34614537 104.67680079 69.30446401 103.10355736 69.2644043 101.53027344 C69.20648213 99.26630338 69.14285161 97.00255402 69.078125 94.73876953 C69.06141251 94.03757996 69.04470001 93.33639038 69.02748108 92.61395264 C68.92820853 89.32705633 68.75359203 86.27797448 67.76171875 83.12939453 C60.96756687 81.76242167 60.96756687 81.76242167 54.76171875 84.12939453 C53.10072042 88.86291007 52.48090027 93.16008766 52.34765625 98.15673828 C52.30898438 99.44257813 52.2703125 100.72841797 52.23046875 102.05322266 C52.19902376 103.39110871 52.16777616 104.72899942 52.13671875 106.06689453 C52.09847533 107.4321521 52.05942005 108.79738717 52.01953125 110.16259766 C51.92561938 113.48472993 51.83994088 116.80686194 51.76171875 120.12939453 C53.06109375 120.10876953 54.36046875 120.08814453 55.69921875 120.06689453 C57.05337508 120.04539999 58.40927958 120.05791255 59.76171875 120.12939453 C61.49464855 121.86232433 60.88991921 124.09153789 60.90066528 126.40087891 C60.89762894 127.50399414 60.89762894 127.50399414 60.89453125 128.62939453 C60.89548798 129.38027344 60.8964447 130.13115234 60.89743042 130.90478516 C60.89811213 132.4952808 60.89625847 134.08577921 60.89208984 135.67626953 C60.88674142 138.11904108 60.89203509 140.56162874 60.8984375 143.00439453 C60.89777672 144.54606161 60.89649555 146.08772857 60.89453125 147.62939453 C60.89655548 148.36480469 60.89857971 149.10021484 60.90066528 149.85791016 C60.87667036 155.01444292 60.87667036 155.01444292 59.76171875 156.12939453 C57.74221666 156.22874601 55.7192096 156.25738961 53.69726562 156.25878906 C51.75019714 156.2635173 51.75019714 156.2635173 49.76379395 156.26834106 C48.33601854 156.26655128 46.90824344 156.26450033 45.48046875 156.26220703 C44.02697737 156.26288011 42.57348611 156.26385017 41.11999512 156.2651062 C38.07005748 156.26658299 35.02014909 156.26442923 31.97021484 156.25976562 C28.05241316 156.25406834 24.13467997 156.25734744 20.2168808 156.26333809 C17.21441121 156.26694422 14.21195798 156.26580488 11.20948792 156.2632103 C9.76453137 156.26254117 8.31957336 156.26336895 6.87461853 156.26568985 C4.85846992 156.26821718 2.84231613 156.26368505 0.82617188 156.25878906 C-0.89804993 156.25759567 -0.89804993 156.25759567 -2.65710449 156.25637817 C-5.23828125 156.12939453 -5.23828125 156.12939453 -6.23828125 155.12939453 C-6.33915337 152.620153 -6.37800157 150.13903069 -6.37109375 147.62939453 C-6.37205048 146.87851563 -6.3730072 146.12763672 -6.37399292 145.35400391 C-6.37467463 143.76350826 -6.37282097 142.17300986 -6.36865234 140.58251953 C-6.36330392 138.13974799 -6.36859759 135.69716032 -6.375 133.25439453 C-6.37433922 131.71272746 -6.37305805 130.1710605 -6.37109375 128.62939453 C-6.37311798 127.89398438 -6.37514221 127.15857422 -6.37722778 126.40087891 C-6.35323286 121.24434614 -6.35323286 121.24434614 -5.23828125 120.12939453 C-2.59828125 120.12939453 0.04171875 120.12939453 2.76171875 120.12939453 C2.76171875 92.40939453 2.76171875 64.68939453 2.76171875 36.12939453 C0.12171875 36.12939453 -2.51828125 36.12939453 -5.23828125 36.12939453 C-6.97121105 34.39646474 -6.36648171 32.16725117 -6.37722778 29.85791016 C-6.37520355 29.1225 -6.37317932 28.38708984 -6.37109375 27.62939453 C-6.37205048 26.87851563 -6.3730072 26.12763672 -6.37399292 25.35400391 C-6.37467463 23.76350826 -6.37282097 22.17300986 -6.36865234 20.58251953 C-6.36330392 18.13974799 -6.36859759 15.69716032 -6.375 13.25439453 C-6.37433922 11.71272746 -6.37305805 10.1710605 -6.37109375 8.62939453 C-6.37311798 7.89398438 -6.37514221 7.15857422 -6.37722778 6.40087891 C-6.34867289 0.26440425 -6.03814225 0.0048544 0 0 Z " fill="#000000" transform="translate(653.23828125,65.87060546875)"/>
<path d="M0 0 C11.88123037 10.15955997 18.01550862 21.39121205 20 37 C21.05639649 55.0543982 19.9115744 72.23157801 7.5 86.375 C2.98131561 91.25963419 -1.62349143 95.03239359 -7.5625 98.0625 C-8.95662109 98.79146484 -8.95662109 98.79146484 -10.37890625 99.53515625 C-20.5045073 103.63127318 -30.08420719 104.47401636 -40.9375 104.375 C-42.83918945 104.39240234 -42.83918945 104.39240234 -44.77929688 104.41015625 C-61.72306569 104.3580483 -76.38665213 100.25966671 -88.8125 88.3515625 C-100.58054591 75.70091315 -103.69086414 59.93902819 -103.24609375 43.08984375 C-102.47214913 26.88321246 -97.10057367 13.01266721 -85 2 C-63.33878544 -14.94518437 -22.53146932 -16.04981376 0 0 Z M-49 32 C-51.16865006 36.33730012 -50.27428576 42.11095765 -50.3125 46.875 C-50.34150391 48.07253906 -50.37050781 49.27007812 -50.40039062 50.50390625 C-50.40876953 51.65503906 -50.41714844 52.80617188 -50.42578125 53.9921875 C-50.44036377 55.04776855 -50.45494629 56.10334961 -50.4699707 57.19091797 C-49.88059994 60.7136712 -48.79968125 61.84659126 -46 64 C-42.00542512 65.08942951 -39.92301513 65.42137647 -36.125 63.6875 C-33.9104069 62.17274837 -33.9104069 62.17274837 -33 60 C-32.72918505 55.7137379 -32.7683694 51.41884638 -32.75 47.125 C-32.729375 45.92746094 -32.70875 44.72992188 -32.6875 43.49609375 C-32.68234375 42.34496094 -32.6771875 41.19382812 -32.671875 40.0078125 C-32.6625293 38.95223145 -32.65318359 37.89665039 -32.64355469 36.80908203 C-33.0498 33.60753509 -33.72998004 32.26541945 -36 30 C-41.33555526 28.48993719 -44.35375551 29.01312854 -49 32 Z " fill="#000000" transform="translate(885,119)"/>
</svg>
